<?xml version="1.0" encoding="UTF-8" standalone="no"?>
<!-- Created with Inkscape (http://www.inkscape.org/) -->

<svg
   version="1.1"
   id="svg2"
   xml:space="preserve"
   width="793.70135"
   height="1122.52"
   viewBox="0 0 793.70135 1122.52"
   sodipodi:docname="LogoResistanceUKWhite.svg"
   inkscape:version="1.1.2 (b8e25be833, 2022-02-05)"
   xmlns:inkscape="http://www.inkscape.org/namespaces/inkscape"
   xmlns:sodipodi="http://sodipodi.sourceforge.net/DTD/sodipodi-0.dtd"
   xmlns="http://www.w3.org/2000/svg"
   xmlns:svg="http://www.w3.org/2000/svg"><defs
     id="defs6"><clipPath
       clipPathUnits="userSpaceOnUse"
       id="clipPath16"><path
         d="M 0,841.89 H 595.276 V 0 H 0 Z"
         id="path14" /></clipPath></defs><sodipodi:namedview
     id="namedview4"
     pagecolor="#ffffff"
     bordercolor="#666666"
     borderopacity="1.0"
     inkscape:pageshadow="2"
     inkscape:pageopacity="0.0"
     inkscape:pagecheckerboard="0"
     showgrid="false"
     inkscape:zoom="0.77771441"
     inkscape:cx="396.67517"
     inkscape:cy="560.6171"
     inkscape:window-width="5120"
     inkscape:window-height="1377"
     inkscape:window-x="-8"
     inkscape:window-y="-8"
     inkscape:window-maximized="1"
     inkscape:current-layer="g10" /><g
     id="g8"
     inkscape:groupmode="layer"
     inkscape:label="LogoResistanceUKv2.1"
     transform="matrix(1.3333333,0,0,-1.3333333,0,1122.52)"><g
       id="g10"><g
         id="g12"
         clip-path="url(#clipPath16)"
         style="fill:#ffffff"
         inkscape:export-filename="C:\Users\jgainsford\Desktop\UKRESWhite.png"
         inkscape:export-xdpi="96"
         inkscape:export-ydpi="96"><g
           id="g18"
           transform="translate(194.7515,387.505)"
           style="fill:#ffffff"><path
             d="M 0,0 61.071,-0.046 V -31.137 H 34.326 V -52.382 H 84.481 V 74.44 L 65.749,74.43 v 21.26 h 18.71 v 16.901 l -18.715,0.019 0.017,10.005 -102.625,77.51 0.042,67.801 H 77.887 V 238.849 H -7.648 l -0.046,-24.648 131.664,-101.269 0.112,-265.438 c 0,0 -19.43,-18.018 -19.858,-18.39 -0.725,0.667 -19.819,18.47 -19.819,18.47 l 0.201,45.908 H 63.761 v -26.643 L 0.162,-73.786 Z"
             style="fill:#ffffff;fill-opacity:1;fill-rule:nonzero;stroke:none"
             id="path20" /></g><g
           id="g22"
           transform="translate(298.9932,170.964)"
           style="fill:#ffffff"><path
             d="m 0,0 18.528,17.052 24.939,-6.401 -43.41,-40.473 -189.927,176.787 0.026,389.59 H -21.78 l -26.976,-21.566 -119.536,-0.037 -0.11,-358.014 z"
             style="fill:#ffffff;fill-opacity:1;fill-rule:nonzero;stroke:none"
             id="path24" /></g><g
           id="g26"
           transform="translate(467.2354,245.4933)"
           style="fill:#ffffff"><path
             d="m 0,0 5.66,73.618 -130.139,180.21 -4.208,45.579 9.565,17.372 -21.361,16.997 -6.105,17.681 17.647,20.862 22.551,-0.875 -26.46,-27.298 36.023,-20.449 -20.764,-34.624 4.53,-27.634 1.302,-1.351 8.223,43.382 63.679,29.015 -24.081,8.916 0.086,0.625 56.623,-10.798 0.705,0.734 -4.6,8.142 48.056,-29.516 -19.229,7.207 77.853,-72.173 -12.616,4.296 -15.798,-4.34 0.369,-9.685 14.659,-9.042 -4.168,-18.881 -18.331,-10.122 -36.908,5.603 -16.791,-7.08 -1.979,-10.91 4.568,5.884 17.12,-10.996 35.428,11.928 11.335,-6.037 -6.197,-33.1 -2.482,6.817 -23.784,-3.323 -37.891,21.909 -3.673,12.374 15.771,32.706 -13.46,-4.311 -55.79,47.673 -3.911,18.999 13.291,24.791 -13.177,-4.556 -14.368,-16.513 -3.633,-30.981 102.225,-195.21 z m -32.342,385.992 14.644,3.869 9.029,-10.473 z m -81.897,22.745 16.296,3.65 6.96,-9.693 z M 49.205,61.631 l -24.561,81.66 0.397,0.26 20.828,-5.921 -0.519,-1.81 -4.007,-4.55 11.33,0.372 17.739,9.963 34.346,106.342 -51.636,48.886 -2.492,7.43 1.838,8.241 -12.76,13.412 17.358,7.207 8.972,24.308 -15.844,-12.355 -12.73,4.541 50.85,76.779 -32.107,-4.782 -6.519,-17.381 -53.092,-7.303 -29.248,52 14.453,8.39 -11.905,30.888 -29.23,-16.517 6.395,-16.743 -55.13,-28.541 -39.792,34.349 6.202,18.058 -28.802,25.446 0.862,-84.468 203.832,-59.08 -214.429,49.225 -0.074,-41.578 h -83.456 v -4.679 l 129.378,-98.923 0.644,-122.745 57.884,-118.103 -11.579,-28.189 -34.891,-23.211 -36.357,-9.981 131.501,-6.895 61.036,71.304 24.806,8.416 13.403,28.94 -13.828,-7.185 z"
             style="fill:#ffffff;fill-opacity:1;fill-rule:nonzero;stroke:none"
             id="path28" /></g><g
           id="g30"
           transform="translate(458.1309,547.7765)"
           style="fill:#ffffff"><path
             d="M 0,0 4.908,4.43 -4.038,6.208 Z M -21.13,-0.314 7.775,17.023 13.1,13.321 18.768,-1.857 29.381,-10.869 18.876,-9.524 15.763,-5.98 Z"
             style="fill:#ffffff;fill-opacity:1;fill-rule:nonzero;stroke:none"
             id="path32" /></g><g
           id="g34"
           transform="translate(68.9985,328.9454)"
           style="fill:#ffffff"><path
             d="m 0,0 h 19.393 c 1.285,0 2.118,0.226 2.501,0.677 0.383,0.451 0.574,1.441 0.574,2.972 v 8.529 c 0,1.53 -0.191,2.527 -0.574,2.992 -0.383,0.465 -1.216,0.697 -2.501,0.697 H 0 c -0.574,0 -0.861,0.301 -0.861,0.903 v 4.796 c 0,0.628 0.287,0.944 0.861,0.944 h 21.279 c 2.269,0 3.929,-0.554 4.981,-1.661 1.053,-1.107 1.579,-2.836 1.579,-5.187 V 0.246 c 0,-2.35 -0.533,-4.086 -1.599,-5.207 -1.066,-1.121 -2.719,-1.681 -4.961,-1.681 H 0 c -0.574,0 -0.861,0.301 -0.861,0.903 v 4.797 C -0.861,-0.314 -0.574,0 0,0"
             style="fill:#ffffff;fill-opacity:1;fill-rule:nonzero;stroke:none"
             id="path36" /></g><g
           id="g38"
           transform="translate(68.9985,387.3702)"
           style="fill:#ffffff"><path
             d="M 0,0 13.366,-12.341 26.978,0.287 c 0.191,0.164 0.383,0.211 0.574,0.144 0.192,-0.069 0.287,-0.226 0.287,-0.472 v -6.272 c 0,-0.602 -0.218,-1.082 -0.656,-1.436 L 15.949,-17.958 v -5.617 h 11.029 c 0.574,0 0.861,-0.315 0.861,-0.943 v -4.797 c 0,-0.602 -0.287,-0.902 -0.861,-0.902 H 0 c -0.574,0 -0.861,0.3 -0.861,0.902 v 4.797 c 0,0.628 0.287,0.943 0.861,0.943 h 10.66 v 6.027 l -10.865,9.881 c -0.437,0.355 -0.656,0.833 -0.656,1.435 v 5.945 c 0,0.219 0.096,0.362 0.287,0.431 C -0.383,0.212 -0.191,0.164 0,0"
             style="fill:#ffffff;fill-opacity:1;fill-rule:nonzero;stroke:none"
             id="path40" /></g><g
           id="g42"
           transform="translate(73.5083,410.0421)"
           style="fill:#ffffff"><path
             d="m 0,0 h 8.282 v 12.505 c 0,1.421 -0.178,2.337 -0.533,2.747 -0.355,0.41 -1.134,0.615 -2.337,0.615 H 2.87 C 1.667,15.867 0.889,15.662 0.533,15.252 0.178,14.842 0,13.926 0,12.505 Z m -5.371,15.785 c 0,2.323 0.513,4.025 1.538,5.105 1.024,1.079 2.644,1.619 4.858,1.619 h 5.658 c 2.242,0 3.916,-0.54 5.023,-1.619 1.107,-1.08 1.66,-2.782 1.66,-5.105 v -1.106 l 9.102,8.691 c 0.164,0.192 0.348,0.246 0.553,0.164 0.206,-0.082 0.308,-0.232 0.308,-0.451 v -6.19 c 0,-0.657 -0.218,-1.163 -0.656,-1.518 L 13.653,7.298 V 0 h 8.815 c 0.574,0 0.861,-0.314 0.861,-0.942 V -5.74 c 0,-0.602 -0.287,-0.902 -0.861,-0.902 H -4.51 c -0.574,0 -0.861,0.3 -0.861,0.902 z"
             style="fill:#ffffff;fill-opacity:1;fill-rule:nonzero;stroke:none"
             id="path44" /></g><g
           id="g46"
           transform="translate(68.1372,438.4552)"
           style="fill:#ffffff"><path
             d="m 0,0 v 26.076 c 0,0.602 0.287,0.903 0.861,0.903 H 4.51 c 0.574,0 0.861,-0.301 0.861,-0.903 V 5.74 h 6.232 v 17.098 c 0,0.628 0.287,0.942 0.861,0.942 h 3.526 c 0.574,0 0.861,-0.314 0.861,-0.942 V 5.74 h 6.478 v 20.336 c 0,0.602 0.287,0.903 0.861,0.903 h 3.649 c 0.574,0 0.861,-0.301 0.861,-0.903 L 28.7,0 c 0,-0.602 -0.287,-0.901 -0.861,-0.901 H 0.861 C 0.287,-0.901 0,-0.602 0,0"
             style="fill:#ffffff;fill-opacity:1;fill-rule:nonzero;stroke:none"
             id="path48" /></g><g
           id="g50"
           transform="translate(88.3096,469.9845)"
           style="fill:#ffffff"><path
             d="m 0,0 v 4.633 c 0,0.629 0.287,0.943 0.861,0.943 h 0.41 c 1.257,0 1.886,0.642 1.886,1.927 v 11.808 c 0,1.066 -0.157,1.784 -0.471,2.153 -0.314,0.368 -0.909,0.553 -1.784,0.553 h -1.968 c -0.874,0 -1.469,-0.185 -1.784,-0.553 -0.314,-0.369 -0.471,-1.087 -0.471,-2.153 V 6.15 C -3.321,3.826 -3.84,2.132 -4.879,1.066 -5.917,0 -7.53,-0.533 -9.717,-0.533 h -4.059 c -2.186,0 -3.799,0.533 -4.838,1.599 -1.039,1.066 -1.558,2.76 -1.558,5.084 v 15.252 c 0,2.46 0.478,4.189 1.435,5.187 0.957,0.997 2.611,1.496 4.961,1.496 h 1.271 c 0.574,0 0.861,-0.301 0.861,-0.902 V 22.55 c 0,-0.602 -0.287,-0.902 -0.861,-0.902 h -0.41 c -1.257,0 -1.886,-0.67 -1.886,-2.009 V 8.815 c 0,-1.066 0.157,-1.784 0.471,-2.153 0.315,-0.368 0.91,-0.553 1.784,-0.553 h 1.681 c 0.902,0 1.511,0.185 1.824,0.553 0.315,0.369 0.472,1.087 0.472,2.153 v 13.12 c 0,2.323 0.512,4.024 1.537,5.104 1.025,1.08 2.645,1.62 4.859,1.62 h 4.305 c 2.214,0 3.833,-0.54 4.858,-1.62 1.025,-1.08 1.538,-2.781 1.538,-5.104 V 5.781 C 8.528,3.321 8.05,1.592 7.093,0.595 6.136,-0.403 4.483,-0.902 2.132,-0.902 H 0.861 C 0.287,-0.902 0,-0.602 0,0"
             style="fill:#ffffff;fill-opacity:1;fill-rule:nonzero;stroke:none"
             id="path52" /></g><g
           id="g54"
           transform="translate(68.9985,509.9991)"
           style="fill:#ffffff"><path
             d="m 0,0 h 26.978 c 0.574,0 0.861,-0.314 0.861,-0.942 V -5.74 c 0,-0.602 -0.287,-0.902 -0.861,-0.902 H 0 c -0.574,0 -0.861,0.3 -0.861,0.902 v 4.798 C -0.861,-0.314 -0.574,0 0,0"
             style="fill:#ffffff;fill-opacity:1;fill-rule:nonzero;stroke:none"
             id="path56" /></g><g
           id="g58"
           transform="translate(88.3096,515.5753)"
           style="fill:#ffffff"><path
             d="m 0,0 v 4.633 c 0,0.629 0.287,0.943 0.861,0.943 h 0.41 c 1.257,0 1.886,0.642 1.886,1.927 v 11.808 c 0,1.066 -0.157,1.784 -0.471,2.153 -0.314,0.368 -0.909,0.553 -1.784,0.553 h -1.968 c -0.874,0 -1.469,-0.185 -1.784,-0.553 -0.314,-0.369 -0.471,-1.087 -0.471,-2.153 V 6.15 C -3.321,3.826 -3.84,2.132 -4.879,1.066 -5.917,0 -7.53,-0.533 -9.717,-0.533 h -4.059 c -2.186,0 -3.799,0.533 -4.838,1.599 -1.039,1.066 -1.558,2.76 -1.558,5.084 v 15.252 c 0,2.46 0.478,4.189 1.435,5.187 0.957,0.997 2.611,1.496 4.961,1.496 h 1.271 c 0.574,0 0.861,-0.301 0.861,-0.902 V 22.55 c 0,-0.602 -0.287,-0.902 -0.861,-0.902 h -0.41 c -1.257,0 -1.886,-0.67 -1.886,-2.009 V 8.815 c 0,-1.066 0.157,-1.784 0.471,-2.153 0.315,-0.368 0.91,-0.553 1.784,-0.553 h 1.681 c 0.902,0 1.511,0.185 1.824,0.553 0.315,0.369 0.472,1.087 0.472,2.153 v 13.12 c 0,2.323 0.512,4.024 1.537,5.104 1.025,1.08 2.645,1.62 4.859,1.62 h 4.305 c 2.214,0 3.833,-0.54 4.858,-1.62 1.025,-1.08 1.538,-2.781 1.538,-5.104 V 5.781 C 8.528,3.321 8.05,1.592 7.093,0.595 6.136,-0.403 4.483,-0.902 2.132,-0.902 H 0.861 C 0.287,-0.902 0,-0.602 0,0"
             style="fill:#ffffff;fill-opacity:1;fill-rule:nonzero;stroke:none"
             id="path60" /></g><g
           id="g62"
           transform="translate(95.9766,557.6818)"
           style="fill:#ffffff"><path
             d="m 0,0 h -22.468 v -10.168 c 0,-0.602 -0.287,-0.901 -0.861,-0.901 h -3.649 c -0.574,0 -0.861,0.299 -0.861,0.901 V 16.77 c 0,0.6 0.287,0.902 0.861,0.902 h 3.649 c 0.574,0 0.861,-0.302 0.861,-0.902 V 6.643 H 0 c 0.574,0 0.861,-0.315 0.861,-0.944 V 0.902 C 0.861,0.301 0.574,0 0,0"
             style="fill:#ffffff;fill-opacity:1;fill-rule:nonzero;stroke:none"
             id="path64" /></g><g
           id="g66"
           transform="translate(73.0986,588.2267)"
           style="fill:#ffffff"><path
             d="M 0,0 12.997,-5.534 V 5.535 Z M 22.919,9.759 18.245,7.749 V -7.749 l 4.674,-1.968 c 0.547,-0.246 0.82,-0.67 0.82,-1.27 v -5.084 c 0,-0.274 -0.089,-0.458 -0.267,-0.554 -0.177,-0.097 -0.389,-0.089 -0.635,0.021 L -4.141,-4.592 c -0.546,0.192 -0.82,0.615 -0.82,1.272 v 6.969 c 0,0.601 0.274,1.026 0.82,1.271 l 26.978,12.014 c 0.246,0.108 0.458,0.116 0.635,0.02 0.178,-0.097 0.267,-0.267 0.267,-0.513 v -5.412 c 0,-0.601 -0.273,-1.025 -0.82,-1.27"
             style="fill:#ffffff;fill-opacity:1;fill-rule:nonzero;stroke:none"
             id="path68" /></g><g
           id="g70"
           transform="translate(96.8374,637.8771)"
           style="fill:#ffffff"><path
             d="M 0,0 V -8.322 C 0,-8.924 -0.232,-9.348 -0.697,-9.594 L -23.37,-23.329 H -0.861 C -0.287,-23.329 0,-23.63 0,-24.23 v -4.346 c 0,-0.602 -0.287,-0.903 -0.861,-0.903 h -26.978 c -0.574,0 -0.861,0.301 -0.861,0.903 v 8.281 c 0,0.574 0.233,0.998 0.697,1.272 l 22.714,13.734 h -22.55 c -0.574,0 -0.861,0.314 -0.861,0.943 V 0 c 0,0.602 0.287,0.902 0.861,0.902 H -0.861 C -0.287,0.902 0,0.602 0,0"
             style="fill:#ffffff;fill-opacity:1;fill-rule:nonzero;stroke:none"
             id="path72" /></g><g
           id="g74"
           transform="translate(87.3252,667.4386)"
           style="fill:#ffffff"><path
             d="m 0,0 v 4.633 c 0,0.6 0.287,0.902 0.861,0.902 H 3.116 C 5.467,5.535 7.121,5.036 8.077,4.038 9.034,3.04 9.512,1.312 9.512,-1.148 v -15.17 c 0,-2.351 -0.533,-4.086 -1.599,-5.207 -1.066,-1.121 -2.719,-1.681 -4.961,-1.681 h -15.58 c -2.241,0 -3.895,0.56 -4.961,1.681 -1.066,1.121 -1.599,2.856 -1.599,5.207 v 15.17 c 0,2.46 0.479,4.188 1.435,5.186 0.957,0.998 2.611,1.497 4.961,1.497 h 2.255 c 0.574,0 0.861,-0.302 0.861,-0.902 V 0 c 0,-0.602 -0.287,-0.902 -0.861,-0.902 h -1.394 c -1.257,0 -1.886,-0.67 -1.886,-2.009 v -10.004 c 0,-1.504 0.192,-2.487 0.574,-2.952 0.383,-0.465 1.217,-0.697 2.501,-0.697 H 1.066 c 1.285,0 2.119,0.232 2.501,0.697 0.383,0.465 0.574,1.448 0.574,2.952 v 10.004 c 0,1.339 -0.628,2.009 -1.886,2.009 H 0.861 C 0.287,-0.902 0,-0.602 0,0"
             style="fill:#ffffff;fill-opacity:1;fill-rule:nonzero;stroke:none"
             id="path76" /></g><g
           id="g78"
           transform="translate(68.1372,678.754)"
           style="fill:#ffffff"><path
             d="m 0,0 v 26.076 c 0,0.602 0.287,0.903 0.861,0.903 H 4.51 c 0.574,0 0.861,-0.301 0.861,-0.903 V 5.74 h 6.232 v 17.098 c 0,0.628 0.287,0.942 0.861,0.942 h 3.526 c 0.574,0 0.861,-0.314 0.861,-0.942 V 5.74 h 6.478 v 20.336 c 0,0.602 0.287,0.903 0.861,0.903 h 3.649 c 0.574,0 0.861,-0.301 0.861,-0.903 L 28.7,0 c 0,-0.602 -0.287,-0.901 -0.861,-0.901 H 0.861 C 0.287,-0.901 0,-0.602 0,0"
             style="fill:#ffffff;fill-opacity:1;fill-rule:nonzero;stroke:none"
             id="path80" /></g></g></g></g></svg>
