<svg xmlns="http://www.w3.org/2000/svg" viewBox="0 0 503.86 608.61"><defs><style>.cls-1{fill:none;}.cls-2{fill:#1d1d1b;}</style></defs><g id="Layer_1" data-name="Layer 1"><path d="M194.75,454.38l61.07.05v31.09H229.08v21.25h50.15V379.94H260.5V358.69h18.71v-16.9l-18.71,0v-10L157.89,254.26l0-67.8H272.64v29.08H187.1l0,24.64L318.72,341.45l.11,265.44s-19.43,18-19.85,18.39c-.73-.67-19.82-18.47-19.82-18.47l.2-45.91H258.51v26.65l-63.6-59.38Z" transform="translate(-68.14 -92.14)"/><polygon points="230.86 578.79 249.38 561.74 274.32 568.14 230.91 608.61 40.99 431.82 41.01 42.23 209.08 42.23 182.1 63.8 62.56 63.84 62.45 421.85 230.86 578.79"/><path d="M516.44,534.77l-24.56-81.66.4-.26,20.82,5.92-.52,1.81-4,4.55,11.33-.37,17.74-10L572,348.45l-51.63-48.89-2.49-7.43,1.83-8.24-12.76-13.41,17.36-7.21,9-24.3-15.84,12.35-12.73-4.54L555.55,170l-32.11,4.78-6.52,17.38-53.09,7.31-29.25-52L449,139.08l-11.91-30.89L407.9,124.71l6.4,16.74L359.17,170l-39.8-34.35,6.21-18.06L296.77,92.14l.87,84.46,203.83,59.08L287,186.46,287,228H203.51v4.68l129.38,98.92.64,122.74,57.89,118.11-11.58,28.19L345,623.89l-36.36,10,131.5,6.89,61-71.3,24.8-8.42,13.4-28.94-13.82,7.19ZM353,187.66,369.29,184l7,9.69Zm81.89,22.74,14.65-3.87,9,10.48Zm32.35,386,5.66-73.62L342.76,342.57,338.55,297l9.56-17.37-21.36-17-6.1-17.68,17.64-20.86,22.56.87-26.46,27.3,36,20.45-20.77,34.62L354.17,335l1.31,1.35,8.22-43.38,63.68-29L403.3,255l.08-.63L460,265.17l.7-.74-4.6-8.14,48.06,29.52-19.23-7.21,77.85,72.17-12.61-4.29-15.8,4.34.37,9.68,14.66,9.05-4.17,18.88-18.33,10.12L490,393,473.21,400l-2,10.91,4.57-5.89,17.12,11,35.42-11.93,11.34,6-6.2,33.1L531,436.44l-23.78,3.32-37.89-21.91-3.68-12.37,15.77-32.71L468,377.08l-55.79-47.67-3.91-19,13.29-24.79-13.17,4.56L394,306.69l-3.63,31L492.6,532.88Z" transform="translate(-68.14 -92.14)"/><path d="M437,294.43l28.91-17.34,5.32,3.7L476.9,296l10.61,9L477,303.64l-3.12-3.55L437,294.43Zm21.13-.32,4.91-4.43-9-1.78Z" transform="translate(-68.14 -92.14)"/><path class="cls-1" d="M201.94,536.43" transform="translate(-68.14 -92.14)"/><path class="cls-2" d="M69,512.94H88.39a3.31,3.31,0,0,0,2.5-.67,5,5,0,0,0,.58-3v-8.52a5.15,5.15,0,0,0-.58-3,3.26,3.26,0,0,0-2.5-.69H69c-.58,0-.86-.3-.86-.91v-4.79c0-.63.28-.95.86-.95H90.28q3.41,0,5,1.67t1.58,5.18V512.7c0,2.35-.54,4.08-1.6,5.21a6.57,6.57,0,0,1-5,1.68H69c-.58,0-.86-.3-.86-.91v-4.79C68.14,513.26,68.42,512.94,69,512.94Z" transform="translate(-68.14 -92.14)"/><path class="cls-2" d="M69,454.52l13.36,12.34L96,454.23a.55.55,0,0,1,.57-.14.44.44,0,0,1,.29.47v6.27a1.77,1.77,0,0,1-.66,1.44L85,472.48v5.61H96c.57,0,.86.32.86,1v4.79c0,.61-.29.91-.86.91H69c-.58,0-.86-.3-.86-.91V479c0-.63.28-1,.86-1H79.66v-6l-10.87-9.88a1.79,1.79,0,0,1-.65-1.44v-5.94a.4.4,0,0,1,.28-.43A.57.57,0,0,1,69,454.52Z" transform="translate(-68.14 -92.14)"/><path class="cls-2" d="M68.14,416.06q0-3.48,1.53-5.1t4.86-1.62h5.66a6.92,6.92,0,0,1,5,1.62q1.67,1.62,1.66,5.1v1.11L96,408.48a.46.46,0,0,1,.55-.17.47.47,0,0,1,.31.45V415a1.82,1.82,0,0,1-.66,1.51l-9,8.08v7.3H96c.57,0,.86.31.86.94v4.8c0,.6-.29.9-.86.9H69c-.58,0-.86-.3-.86-.9Zm5.37,15.79h8.28V419.34a4.66,4.66,0,0,0-.53-2.74,3.17,3.17,0,0,0-2.34-.62H76.38a3.17,3.17,0,0,0-2.34.62,4.66,4.66,0,0,0-.53,2.74Z" transform="translate(-68.14 -92.14)"/><path class="cls-2" d="M68.14,403.43V377.36c0-.6.28-.9.86-.9h3.65c.57,0,.86.3.86.9v20.33h6.23V380.6c0-.63.29-1,.86-1h3.53c.57,0,.86.32.86,1v17.09h6.48V377.36c0-.6.28-.9.86-.9H96c.57,0,.86.3.86.9v26.07c0,.61-.29.91-.86.91H69C68.42,404.34,68.14,404,68.14,403.43Z" transform="translate(-68.14 -92.14)"/><path class="cls-2" d="M88.31,371.91v-4.64c0-.63.29-.94.86-.94h.41a1.69,1.69,0,0,0,1.89-1.93V352.59a3.52,3.52,0,0,0-.47-2.15,2.29,2.29,0,0,0-1.79-.55h-2a2.27,2.27,0,0,0-1.78.55,3.52,3.52,0,0,0-.47,2.15v13.16c0,2.33-.52,4-1.56,5.09a6.48,6.48,0,0,1-4.84,1.6H74.53a6.45,6.45,0,0,1-4.83-1.6c-1-1.07-1.56-2.76-1.56-5.09V350.5q0-3.69,1.43-5.18t5-1.5H75.8a.78.78,0,0,1,.87.9v4.64a.78.78,0,0,1-.87.9h-.41c-1.25,0-1.88.67-1.88,2v10.82a3.5,3.5,0,0,0,.47,2.15,2.27,2.27,0,0,0,1.78.56h1.68a2.34,2.34,0,0,0,1.83-.56,3.5,3.5,0,0,0,.47-2.15V350q0-3.48,1.54-5.1t4.86-1.62h4.3c2.22,0,3.83.54,4.86,1.62s1.54,2.78,1.54,5.1v16.15q0,3.69-1.44,5.19c-1,1-2.61,1.5-5,1.5H89.17C88.6,372.81,88.31,372.51,88.31,371.91Z" transform="translate(-68.14 -92.14)"/><path class="cls-2" d="M69,331.89H96c.57,0,.86.32.86.94v4.8c0,.6-.29.9-.86.9H69c-.58,0-.86-.3-.86-.9v-4.8C68.14,332.21,68.42,331.89,69,331.89Z" transform="translate(-68.14 -92.14)"/><path class="cls-2" d="M88.31,326.31v-4.63c0-.63.29-.94.86-.94h.41a1.69,1.69,0,0,0,1.89-1.93V307a3.52,3.52,0,0,0-.47-2.15,2.29,2.29,0,0,0-1.79-.55h-2a2.27,2.27,0,0,0-1.78.55A3.52,3.52,0,0,0,85,307v13.16c0,2.33-.52,4-1.56,5.09a6.52,6.52,0,0,1-4.84,1.6H74.53a6.49,6.49,0,0,1-4.83-1.6c-1-1.07-1.56-2.76-1.56-5.09V304.91q0-3.69,1.43-5.18t5-1.5H75.8a.78.78,0,0,1,.87.9v4.63c0,.61-.29.91-.87.91h-.41c-1.25,0-1.88.67-1.88,2V317.5a3.5,3.5,0,0,0,.47,2.15,2.27,2.27,0,0,0,1.78.56h1.68a2.34,2.34,0,0,0,1.83-.56,3.5,3.5,0,0,0,.47-2.15V304.38q0-3.48,1.54-5.1t4.86-1.62h4.3c2.22,0,3.83.54,4.86,1.62s1.54,2.78,1.54,5.1v16.15q0,3.69-1.44,5.19c-1,1-2.61,1.5-5,1.5H89.17C88.6,327.22,88.31,326.92,88.31,326.31Z" transform="translate(-68.14 -92.14)"/><path class="cls-2" d="M96,284.21H73.51v10.17c0,.6-.29.9-.86.9H69c-.58,0-.86-.3-.86-.9V267.44c0-.6.28-.9.86-.9h3.65c.57,0,.86.3.86.9v10.13H96c.57,0,.86.31.86.94v4.8C96.84,283.91,96.55,284.21,96,284.21Z" transform="translate(-68.14 -92.14)"/><path class="cls-2" d="M96,243.9l-4.68,2v15.5l4.68,2a1.3,1.3,0,0,1,.82,1.27v5.08a.58.58,0,0,1-.27.56.7.7,0,0,1-.63,0l-27-12a1.19,1.19,0,0,1-.82-1.27v-7a1.29,1.29,0,0,1,.82-1.27l27-12a.67.67,0,0,1,.63,0,.54.54,0,0,1,.27.51v5.41A1.29,1.29,0,0,1,96,243.9ZM73.1,253.66l13,5.54V248.13Z" transform="translate(-68.14 -92.14)"/><path class="cls-2" d="M96.84,204v8.32a1.32,1.32,0,0,1-.7,1.28L73.47,227.34H96c.57,0,.86.3.86.9v4.35c0,.6-.29.9-.86.9H69c-.58,0-.86-.3-.86-.9v-8.28a1.36,1.36,0,0,1,.69-1.27L91.55,209.3H69c-.58,0-.86-.31-.86-.94V204c0-.6.28-.9.86-.9H96C96.55,203.11,96.84,203.41,96.84,204Z" transform="translate(-68.14 -92.14)"/><path class="cls-2" d="M87.33,174.45v-4.63c0-.6.28-.9.86-.9h2.25c2.35,0,4,.5,5,1.49s1.44,2.73,1.44,5.19v15.17c0,2.35-.54,4.09-1.6,5.21a6.57,6.57,0,0,1-5,1.68H74.7c-2.24,0-3.9-.56-5-1.68s-1.6-2.86-1.6-5.21V175.6q0-3.69,1.43-5.19t5-1.49h2.26c.57,0,.86.3.86.9v4.63c0,.6-.29.9-.86.9h-1.4c-1.25,0-1.88.67-1.88,2v10a5.12,5.12,0,0,0,.57,2.95,3.28,3.28,0,0,0,2.5.7H88.39a3.25,3.25,0,0,0,2.5-.7,5,5,0,0,0,.58-2.95v-10q0-2-1.89-2H88.19C87.61,175.35,87.33,175.05,87.33,174.45Z" transform="translate(-68.14 -92.14)"/><path class="cls-2" d="M68.14,163.14V137.06c0-.6.28-.9.86-.9h3.65c.57,0,.86.3.86.9V157.4h6.23V140.3c0-.63.29-.94.86-.94h3.53c.57,0,.86.31.86.94v17.1h6.48V137.06c0-.6.28-.9.86-.9H96c.57,0,.86.3.86.9v26.08c0,.6-.29.9-.86.9H69C68.42,164,68.14,163.74,68.14,163.14Z" transform="translate(-68.14 -92.14)"/></g></svg>